# xmcd CD database file
#
# Track frame offsets:
#	150
#	19832
#	36883
#
# Disc length: 786 seconds
#
# Revision: 0
# Processed by: cddbd v1.5PL3 Copyright (c) Steve Scherf et al.
# Submitted via: CDex 1.50beta8
#
DISCID=1c031003
DTITLE=Sunny Side Up - 京都慕情
DYEAR=2002
DGENRE=Japanese Pop
TTITLE0=京都慕情
TTITLE1=Ringing Up
TTITLE2=一番星
EXTD=YEAR: 2002
EXTT0=
EXTT1=
EXTT2=
PLAYORDER=
